<svg width="24" height="24" viewBox="0 0 24 24" fill="none" xmlns="http://www.w3.org/2000/svg">
<g clip-path="url(#clip0_133_430)">
<path fill-rule="evenodd" clip-rule="evenodd" d="M4.92889 4.92896C4.53836 5.31949 4.53836 5.95265 4.92889 6.34318L10.5858 12.0001L4.92894 17.6569C4.53841 18.0474 4.53841 18.6806 4.92894 19.0711C5.31946 19.4616 5.95263 19.4616 6.34315 19.0711L12 13.4143L17.6568 19.0711C18.0473 19.4616 18.6805 19.4616 19.071 19.0711C19.4615 18.6806 19.4615 18.0474 19.071 17.6569L13.4142 12.0001L19.0711 6.34317C19.4616 5.95264 19.4616 5.31948 19.0711 4.92895C18.6805 4.53843 18.0474 4.53843 17.6569 4.92895L12 10.5858L6.3431 4.92896C5.95258 4.53844 5.31941 4.53844 4.92889 4.92896Z" fill="#151619"/>
</g>
<defs>
<clipPath id="clip0_133_430">
<rect width="24" height="24" fill="white"/>
</clipPath>
</defs>
</svg>
